<svg xmlns="http://www.w3.org/2000/svg" xmlns:xlink="http://www.w3.org/1999/xlink" width="300" zoomAndPan="magnify" viewBox="0 0 224.87999 60" height="80" preserveAspectRatio="xMidYMid meet" version="1.2"><defs/><g id="4faa3e5301"><g style="fill:#000000;fill-opacity:1;"><g transform="translate(62.47447, 39.171881)"><path style="stroke:none" d="M 7.9375 0 L 0 0 L 0 -0.359375 C 0.40625 -0.460938 0.847656 -0.613281 1.328125 -0.8125 C 1.804688 -1.019531 2.304688 -1.398438 2.828125 -1.953125 C 3.347656 -2.503906 3.847656 -3.335938 4.328125 -4.453125 C 4.578125 -5.003906 4.816406 -5.582031 5.046875 -6.1875 C 5.285156 -6.800781 5.550781 -7.507812 5.84375 -8.3125 C 6.144531 -9.125 6.5 -10.09375 6.90625 -11.21875 C 7.3125 -12.351562 7.804688 -13.703125 8.390625 -15.265625 C 8.921875 -16.691406 9.472656 -18.132812 10.046875 -19.59375 C 10.617188 -21.0625 11.164062 -22.46875 11.6875 -23.8125 C 12.21875 -25.15625 12.6875 -26.359375 13.09375 -27.421875 C 12.832031 -27.785156 12.519531 -28.019531 12.15625 -28.125 C 11.789062 -28.238281 11.25 -28.296875 10.53125 -28.296875 L 9.40625 -28.296875 L 9.40625 -28.734375 L 9.890625 -28.734375 C 10.234375 -28.734375 10.601562 -28.859375 11 -29.109375 C 11.40625 -29.367188 11.804688 -29.671875 12.203125 -30.015625 C 12.597656 -30.359375 12.960938 -30.65625 13.296875 -30.90625 C 13.628906 -31.164062 13.898438 -31.296875 14.109375 -31.296875 C 14.328125 -31.296875 14.5 -31.222656 14.625 -31.078125 C 14.75 -30.929688 14.851562 -30.75 14.9375 -30.53125 C 15.132812 -30.0625 15.441406 -29.296875 15.859375 -28.234375 C 16.273438 -27.179688 16.765625 -25.941406 17.328125 -24.515625 C 17.890625 -23.085938 18.472656 -21.578125 19.078125 -19.984375 C 19.691406 -18.390625 20.285156 -16.816406 20.859375 -15.265625 C 21.441406 -13.703125 21.9375 -12.351562 22.34375 -11.21875 C 22.75 -10.09375 23.097656 -9.125 23.390625 -8.3125 C 23.691406 -7.507812 23.957031 -6.800781 24.1875 -6.1875 C 24.425781 -5.582031 24.664062 -5.003906 24.90625 -4.453125 C 25.414062 -3.335938 25.925781 -2.503906 26.4375 -1.953125 C 26.945312 -1.398438 27.441406 -1.019531 27.921875 -0.8125 C 28.398438 -0.613281 28.84375 -0.460938 29.25 -0.359375 L 29.25 0 L 19.546875 0 L 19.546875 -0.359375 C 19.910156 -0.359375 20.285156 -0.429688 20.671875 -0.578125 C 21.054688 -0.722656 21.382812 -0.976562 21.65625 -1.34375 C 21.9375 -1.707031 22.078125 -2.207031 22.078125 -2.84375 C 22.078125 -3.269531 21.914062 -4.015625 21.59375 -5.078125 C 21.28125 -6.148438 20.878906 -7.398438 20.390625 -8.828125 L 6.984375 -8.828125 C 6.523438 -7.398438 6.144531 -6.160156 5.84375 -5.109375 C 5.550781 -4.066406 5.40625 -3.34375 5.40625 -2.9375 C 5.40625 -2.175781 5.539062 -1.613281 5.8125 -1.25 C 6.09375 -0.882812 6.429688 -0.644531 6.828125 -0.53125 C 7.222656 -0.414062 7.59375 -0.359375 7.9375 -0.359375 Z M 13.46875 -26.75 C 13.082031 -25.726562 12.625 -24.519531 12.09375 -23.125 C 11.5625 -21.726562 11.003906 -20.238281 10.421875 -18.65625 C 9.847656 -17.082031 9.28125 -15.503906 8.71875 -13.921875 C 8.15625 -12.335938 7.640625 -10.84375 7.171875 -9.4375 L 20.15625 -9.4375 C 19.726562 -10.65625 19.253906 -11.945312 18.734375 -13.3125 C 18.210938 -14.675781 17.691406 -16.035156 17.171875 -17.390625 C 16.648438 -18.742188 16.144531 -20.023438 15.65625 -21.234375 C 15.175781 -22.441406 14.742188 -23.523438 14.359375 -24.484375 C 13.984375 -25.441406 13.6875 -26.195312 13.46875 -26.75 Z M 13.46875 -26.75 "/></g></g><g style="fill:#000000;fill-opacity:1;"><g transform="translate(91.715318, 39.171881)"><path style="stroke:none" d="M 1.21875 -30.171875 L 1.21875 -30.53125 L 8.921875 -30.53125 L 8.921875 -30.171875 C 8.347656 -30.171875 7.894531 -30.023438 7.5625 -29.734375 C 7.238281 -29.453125 7.007812 -29.097656 6.875 -28.671875 C 6.75 -28.242188 6.671875 -27.789062 6.640625 -27.3125 C 6.609375 -26.832031 6.59375 -26.410156 6.59375 -26.046875 L 6.4375 -16.640625 L 13.375 -23.171875 C 13.4375 -23.234375 13.628906 -23.414062 13.953125 -23.71875 C 14.273438 -24.03125 14.660156 -24.410156 15.109375 -24.859375 C 15.554688 -25.316406 15.992188 -25.8125 16.421875 -26.34375 C 16.847656 -26.875 17.207031 -27.398438 17.5 -27.921875 C 17.800781 -28.441406 17.953125 -28.914062 17.953125 -29.34375 C 17.953125 -29.6875 17.84375 -29.910156 17.625 -30.015625 C 17.414062 -30.117188 17.015625 -30.171875 16.421875 -30.171875 L 16.421875 -30.53125 L 25.3125 -30.53125 L 25.3125 -30.171875 C 24.613281 -30.171875 23.789062 -29.941406 22.84375 -29.484375 C 21.90625 -29.023438 20.894531 -28.40625 19.8125 -27.625 C 18.738281 -26.851562 17.628906 -25.988281 16.484375 -25.03125 C 15.347656 -24.070312 14.222656 -23.085938 13.109375 -22.078125 C 12.003906 -21.078125 10.960938 -20.109375 9.984375 -19.171875 C 10.648438 -19.109375 11.25 -18.832031 11.78125 -18.34375 C 12.3125 -17.851562 12.984375 -17.039062 13.796875 -15.90625 C 14.796875 -14.5 15.679688 -13.222656 16.453125 -12.078125 C 17.222656 -10.941406 18 -9.816406 18.78125 -8.703125 C 19.570312 -7.597656 20.46875 -6.382812 21.46875 -5.0625 C 22.03125 -4.332031 22.625 -3.601562 23.25 -2.875 C 23.875 -2.15625 24.488281 -1.554688 25.09375 -1.078125 C 25.707031 -0.597656 26.28125 -0.359375 26.8125 -0.359375 L 26.8125 0 L 18.5 0 L 18.5 -0.359375 C 19.050781 -0.359375 19.375 -0.53125 19.46875 -0.875 C 19.570312 -1.226562 19.535156 -1.660156 19.359375 -2.171875 C 19.191406 -2.679688 18.972656 -3.171875 18.703125 -3.640625 C 18.441406 -4.117188 18.222656 -4.492188 18.046875 -4.765625 C 17.171875 -6.066406 16.335938 -7.269531 15.546875 -8.375 C 14.765625 -9.488281 13.960938 -10.617188 13.140625 -11.765625 C 12.316406 -12.921875 11.394531 -14.195312 10.375 -15.59375 C 10.132812 -15.945312 9.878906 -16.28125 9.609375 -16.59375 C 9.347656 -16.90625 8.984375 -17.0625 8.515625 -17.0625 C 8.148438 -17.0625 7.800781 -16.941406 7.46875 -16.703125 C 7.132812 -16.472656 6.84375 -16.238281 6.59375 -16 L 6.59375 -4.484375 C 6.59375 -4.117188 6.609375 -3.695312 6.640625 -3.21875 C 6.671875 -2.738281 6.75 -2.285156 6.875 -1.859375 C 7.007812 -1.429688 7.238281 -1.070312 7.5625 -0.78125 C 7.894531 -0.5 8.347656 -0.359375 8.921875 -0.359375 L 8.921875 0 L 1.21875 0 L 1.21875 -0.359375 C 1.8125 -0.359375 2.265625 -0.5 2.578125 -0.78125 C 2.890625 -1.070312 3.113281 -1.429688 3.25 -1.859375 C 3.382812 -2.285156 3.46875 -2.738281 3.5 -3.21875 C 3.53125 -3.695312 3.546875 -4.117188 3.546875 -4.484375 L 3.546875 -26.046875 C 3.546875 -26.410156 3.53125 -26.832031 3.5 -27.3125 C 3.46875 -27.789062 3.382812 -28.242188 3.25 -28.671875 C 3.113281 -29.097656 2.890625 -29.453125 2.578125 -29.734375 C 2.265625 -30.023438 1.8125 -30.171875 1.21875 -30.171875 Z M 1.21875 -30.171875 "/></g></g><g style="fill:#000000;fill-opacity:1;"><g transform="translate(106.357967, 39.171881)"><path style="stroke:none" d="M 0 -30.53125 L 9.984375 -30.53125 L 9.984375 -30.171875 C 9.515625 -30.171875 9.113281 -30.0625 8.78125 -29.84375 C 8.457031 -29.632812 8.296875 -29.3125 8.296875 -28.875 C 8.296875 -28.488281 8.441406 -27.9375 8.734375 -27.21875 C 9.035156 -26.5 9.4375 -25.671875 9.9375 -24.734375 C 10.4375 -23.796875 10.988281 -22.820312 11.59375 -21.8125 C 12.207031 -20.800781 12.820312 -19.804688 13.4375 -18.828125 C 14.0625 -17.859375 14.648438 -16.960938 15.203125 -16.140625 C 15.753906 -15.316406 16.210938 -14.628906 16.578125 -14.078125 C 16.941406 -14.628906 17.394531 -15.320312 17.9375 -16.15625 C 18.476562 -16.988281 19.046875 -17.894531 19.640625 -18.875 C 20.242188 -19.863281 20.835938 -20.867188 21.421875 -21.890625 C 22.015625 -22.910156 22.550781 -23.882812 23.03125 -24.8125 C 23.507812 -25.738281 23.890625 -26.554688 24.171875 -27.265625 C 24.460938 -27.972656 24.609375 -28.507812 24.609375 -28.875 C 24.609375 -29.3125 24.410156 -29.632812 24.015625 -29.84375 C 23.617188 -30.0625 23.1875 -30.171875 22.71875 -30.171875 L 22.71875 -30.53125 L 30.21875 -30.53125 L 30.21875 -30.171875 C 29.34375 -30.171875 28.585938 -29.992188 27.953125 -29.640625 C 27.328125 -29.296875 26.75 -28.769531 26.21875 -28.0625 C 26.0625 -27.851562 25.753906 -27.378906 25.296875 -26.640625 C 24.835938 -25.910156 24.28125 -25.03125 23.625 -24 C 22.976562 -22.976562 22.296875 -21.894531 21.578125 -20.75 C 20.867188 -19.613281 20.179688 -18.507812 19.515625 -17.4375 C 18.859375 -16.375 18.28125 -15.441406 17.78125 -14.640625 C 17.28125 -13.835938 16.929688 -13.265625 16.734375 -12.921875 L 16.734375 -4.484375 C 16.734375 -4.117188 16.75 -3.695312 16.78125 -3.21875 C 16.8125 -2.738281 16.890625 -2.285156 17.015625 -1.859375 C 17.148438 -1.429688 17.378906 -1.070312 17.703125 -0.78125 C 18.035156 -0.5 18.484375 -0.359375 19.046875 -0.359375 L 19.046875 0 L 11.359375 0 L 11.359375 -0.359375 C 11.953125 -0.359375 12.40625 -0.5 12.71875 -0.78125 C 13.03125 -1.070312 13.253906 -1.429688 13.390625 -1.859375 C 13.523438 -2.285156 13.601562 -2.738281 13.625 -3.21875 C 13.65625 -3.695312 13.671875 -4.117188 13.671875 -4.484375 L 13.671875 -12.609375 C 13.671875 -12.609375 13.515625 -12.863281 13.203125 -13.375 C 12.890625 -13.882812 12.46875 -14.566406 11.9375 -15.421875 C 11.40625 -16.273438 10.820312 -17.210938 10.1875 -18.234375 C 9.5625 -19.265625 8.910156 -20.3125 8.234375 -21.375 C 7.566406 -22.445312 6.941406 -23.453125 6.359375 -24.390625 C 5.785156 -25.328125 5.285156 -26.117188 4.859375 -26.765625 C 4.429688 -27.421875 4.144531 -27.851562 4 -28.0625 C 3.488281 -28.769531 2.914062 -29.296875 2.28125 -29.640625 C 1.65625 -29.992188 0.894531 -30.171875 0 -30.171875 Z M 0 -30.53125 "/></g></g><g style="fill:#000000;fill-opacity:1;"><g transform="translate(136.575539, 39.171881)"><path style="stroke:none" d="M 0 -30.53125 L 9.984375 -30.53125 L 9.984375 -30.171875 C 9.515625 -30.171875 9.113281 -30.0625 8.78125 -29.84375 C 8.457031 -29.632812 8.296875 -29.3125 8.296875 -28.875 C 8.296875 -28.488281 8.441406 -27.9375 8.734375 -27.21875 C 9.035156 -26.5 9.4375 -25.671875 9.9375 -24.734375 C 10.4375 -23.796875 10.988281 -22.820312 11.59375 -21.8125 C 12.207031 -20.800781 12.820312 -19.804688 13.4375 -18.828125 C 14.0625 -17.859375 14.648438 -16.960938 15.203125 -16.140625 C 15.753906 -15.316406 16.210938 -14.628906 16.578125 -14.078125 C 16.941406 -14.628906 17.394531 -15.320312 17.9375 -16.15625 C 18.476562 -16.988281 19.046875 -17.894531 19.640625 -18.875 C 20.242188 -19.863281 20.835938 -20.867188 21.421875 -21.890625 C 22.015625 -22.910156 22.550781 -23.882812 23.03125 -24.8125 C 23.507812 -25.738281 23.890625 -26.554688 24.171875 -27.265625 C 24.460938 -27.972656 24.609375 -28.507812 24.609375 -28.875 C 24.609375 -29.3125 24.410156 -29.632812 24.015625 -29.84375 C 23.617188 -30.0625 23.1875 -30.171875 22.71875 -30.171875 L 22.71875 -30.53125 L 30.21875 -30.53125 L 30.21875 -30.171875 C 29.34375 -30.171875 28.585938 -29.992188 27.953125 -29.640625 C 27.328125 -29.296875 26.75 -28.769531 26.21875 -28.0625 C 26.0625 -27.851562 25.753906 -27.378906 25.296875 -26.640625 C 24.835938 -25.910156 24.28125 -25.03125 23.625 -24 C 22.976562 -22.976562 22.296875 -21.894531 21.578125 -20.75 C 20.867188 -19.613281 20.179688 -18.507812 19.515625 -17.4375 C 18.859375 -16.375 18.28125 -15.441406 17.78125 -14.640625 C 17.28125 -13.835938 16.929688 -13.265625 16.734375 -12.921875 L 16.734375 -4.484375 C 16.734375 -4.117188 16.75 -3.695312 16.78125 -3.21875 C 16.8125 -2.738281 16.890625 -2.285156 17.015625 -1.859375 C 17.148438 -1.429688 17.378906 -1.070312 17.703125 -0.78125 C 18.035156 -0.5 18.484375 -0.359375 19.046875 -0.359375 L 19.046875 0 L 11.359375 0 L 11.359375 -0.359375 C 11.953125 -0.359375 12.40625 -0.5 12.71875 -0.78125 C 13.03125 -1.070312 13.253906 -1.429688 13.390625 -1.859375 C 13.523438 -2.285156 13.601562 -2.738281 13.625 -3.21875 C 13.65625 -3.695312 13.671875 -4.117188 13.671875 -4.484375 L 13.671875 -12.609375 C 13.671875 -12.609375 13.515625 -12.863281 13.203125 -13.375 C 12.890625 -13.882812 12.46875 -14.566406 11.9375 -15.421875 C 11.40625 -16.273438 10.820312 -17.210938 10.1875 -18.234375 C 9.5625 -19.265625 8.910156 -20.3125 8.234375 -21.375 C 7.566406 -22.445312 6.941406 -23.453125 6.359375 -24.390625 C 5.785156 -25.328125 5.285156 -26.117188 4.859375 -26.765625 C 4.429688 -27.421875 4.144531 -27.851562 4 -28.0625 C 3.488281 -28.769531 2.914062 -29.296875 2.28125 -29.640625 C 1.65625 -29.992188 0.894531 -30.171875 0 -30.171875 Z M 0 -30.53125 "/></g></g><g style="fill:#000000;fill-opacity:1;"><g transform="translate(53.432292, 49.885501)"><path style="stroke:none" d="M 1.25 -2.296875 L 1.875 -2.296875 C 2.21875 -2.296875 2.476562 -2.378906 2.65625 -2.546875 C 2.84375 -2.722656 2.9375 -2.953125 2.9375 -3.234375 C 2.9375 -3.523438 2.84375 -3.753906 2.65625 -3.921875 C 2.476562 -4.085938 2.210938 -4.171875 1.859375 -4.171875 L 1.25 -4.171875 Z M 0.515625 -4.78125 L 1.890625 -4.78125 C 2.429688 -4.78125 2.863281 -4.632812 3.1875 -4.34375 C 3.507812 -4.050781 3.671875 -3.675781 3.671875 -3.21875 C 3.671875 -2.769531 3.507812 -2.40625 3.1875 -2.125 C 2.863281 -1.84375 2.441406 -1.703125 1.921875 -1.703125 L 1.25 -1.703125 L 1.25 0 L 0.515625 0 Z M 0.515625 -4.78125 "/></g></g><g style="fill:#000000;fill-opacity:1;"><g transform="translate(62.007995, 49.885501)"><path style="stroke:none" d="M 1.25 -4.171875 L 1.25 -2.421875 L 1.90625 -2.421875 C 2.207031 -2.421875 2.4375 -2.5 2.59375 -2.65625 C 2.75 -2.820312 2.828125 -3.035156 2.828125 -3.296875 C 2.828125 -3.878906 2.507812 -4.171875 1.875 -4.171875 Z M 3 0 L 1.875 -1.8125 L 1.25 -1.8125 L 1.25 0 L 0.515625 0 L 0.515625 -4.78125 L 1.84375 -4.78125 C 2.394531 -4.78125 2.816406 -4.644531 3.109375 -4.375 C 3.410156 -4.113281 3.5625 -3.753906 3.5625 -3.296875 C 3.5625 -2.953125 3.476562 -2.660156 3.3125 -2.421875 C 3.144531 -2.191406 2.914062 -2.023438 2.625 -1.921875 L 3.875 0 Z M 3 0 "/></g></g><g style="fill:#000000;fill-opacity:1;"><g transform="translate(70.711378, 49.885501)"><path style="stroke:none" d="M 0.328125 -2.40625 C 0.328125 -3.15625 0.523438 -3.753906 0.921875 -4.203125 C 1.316406 -4.648438 1.847656 -4.875 2.515625 -4.875 C 3.203125 -4.875 3.738281 -4.648438 4.125 -4.203125 C 4.519531 -3.753906 4.71875 -3.15625 4.71875 -2.40625 C 4.71875 -1.664062 4.519531 -1.066406 4.125 -0.609375 C 3.726562 -0.160156 3.195312 0.0625 2.53125 0.0625 C 1.863281 0.0625 1.328125 -0.160156 0.921875 -0.609375 C 0.523438 -1.066406 0.328125 -1.664062 0.328125 -2.40625 Z M 1.46875 -3.703125 C 1.21875 -3.390625 1.09375 -2.957031 1.09375 -2.40625 C 1.09375 -1.863281 1.222656 -1.429688 1.484375 -1.109375 C 1.742188 -0.785156 2.09375 -0.625 2.53125 -0.625 C 2.976562 -0.625 3.328125 -0.78125 3.578125 -1.09375 C 3.828125 -1.414062 3.953125 -1.851562 3.953125 -2.40625 C 3.953125 -2.957031 3.820312 -3.390625 3.5625 -3.703125 C 3.3125 -4.023438 2.960938 -4.1875 2.515625 -4.1875 C 2.066406 -4.1875 1.71875 -4.023438 1.46875 -3.703125 Z M 1.46875 -3.703125 "/></g></g><g style="fill:#000000;fill-opacity:1;"><g transform="translate(80.42909, 49.885501)"><path style="stroke:none" d="M 1.265625 -0.609375 L 2.015625 -0.609375 C 2.554688 -0.609375 2.96875 -0.78125 3.25 -1.125 C 3.539062 -1.46875 3.6875 -1.90625 3.6875 -2.4375 C 3.6875 -2.925781 3.53125 -3.332031 3.21875 -3.65625 C 2.914062 -3.988281 2.507812 -4.15625 2 -4.15625 L 1.265625 -4.15625 Z M 0.515625 -4.78125 L 2 -4.78125 C 2.71875 -4.78125 3.300781 -4.5625 3.75 -4.125 C 4.207031 -3.6875 4.4375 -3.125 4.4375 -2.4375 C 4.4375 -1.726562 4.222656 -1.144531 3.796875 -0.6875 C 3.367188 -0.226562 2.773438 0 2.015625 0 L 0.515625 0 Z M 0.515625 -4.78125 "/></g></g><g style="fill:#000000;fill-opacity:1;"><g transform="translate(89.834701, 49.885501)"><path style="stroke:none" d="M 3.390625 -1.8125 L 3.390625 -4.78125 L 4.125 -4.78125 L 4.125 -1.828125 C 4.125 -1.210938 3.960938 -0.742188 3.640625 -0.421875 C 3.316406 -0.0976562 2.875 0.0625 2.3125 0.0625 C 1.75 0.0625 1.304688 -0.09375 0.984375 -0.40625 C 0.660156 -0.71875 0.5 -1.171875 0.5 -1.765625 L 0.5 -4.78125 L 1.234375 -4.78125 L 1.234375 -1.78125 C 1.234375 -1.375 1.332031 -1.078125 1.53125 -0.890625 C 1.726562 -0.703125 1.988281 -0.609375 2.3125 -0.609375 C 3.03125 -0.609375 3.390625 -1.007812 3.390625 -1.8125 Z M 3.390625 -1.8125 "/></g></g><g style="fill:#000000;fill-opacity:1;"><g transform="translate(99.133909, 49.885501)"><path style="stroke:none" d="M 3.96875 -4.578125 L 3.96875 -3.859375 C 3.757812 -3.972656 3.570312 -4.050781 3.40625 -4.09375 C 3.238281 -4.144531 3.023438 -4.171875 2.765625 -4.171875 C 2.285156 -4.171875 1.882812 -4.007812 1.5625 -3.6875 C 1.25 -3.363281 1.09375 -2.929688 1.09375 -2.390625 C 1.09375 -1.847656 1.25 -1.414062 1.5625 -1.09375 C 1.882812 -0.769531 2.304688 -0.609375 2.828125 -0.609375 C 3.285156 -0.609375 3.671875 -0.726562 3.984375 -0.96875 L 3.984375 -0.234375 C 3.691406 -0.0351562 3.285156 0.0625 2.765625 0.0625 C 2.046875 0.0625 1.457031 -0.160156 1 -0.609375 C 0.550781 -1.054688 0.328125 -1.648438 0.328125 -2.390625 C 0.328125 -3.117188 0.554688 -3.707031 1.015625 -4.15625 C 1.472656 -4.613281 2.050781 -4.84375 2.75 -4.84375 C 3.257812 -4.84375 3.664062 -4.753906 3.96875 -4.578125 Z M 3.96875 -4.578125 "/></g></g><g style="fill:#000000;fill-opacity:1;"><g transform="translate(108.09974, 49.885501)"><path style="stroke:none" d="M 3.390625 -4.78125 L 3.390625 -4.171875 L 2.140625 -4.171875 L 2.140625 0 L 1.40625 0 L 1.40625 -4.171875 L 0.15625 -4.171875 L 0.15625 -4.78125 Z M 3.390625 -4.78125 "/></g></g><g style="fill:#000000;fill-opacity:1;"><g transform="translate(116.320779, 49.885501)"><path style="stroke:none" d=""/></g></g><g style="fill:#000000;fill-opacity:1;"><g transform="translate(122.740135, 49.885501)"><path style="stroke:none" d="M 3.390625 -4.78125 L 4.125 -4.78125 L 4.125 0 L 3.390625 0 L 3.390625 -2.09375 L 1.25 -2.09375 L 1.25 0 L 0.515625 0 L 0.515625 -4.78125 L 1.25 -4.78125 L 1.25 -2.71875 L 3.390625 -2.71875 Z M 3.390625 -4.78125 "/></g></g><g style="fill:#000000;fill-opacity:1;"><g transform="translate(132.067718, 49.885501)"><path style="stroke:none" d="M 3.390625 -1.8125 L 3.390625 -4.78125 L 4.125 -4.78125 L 4.125 -1.828125 C 4.125 -1.210938 3.960938 -0.742188 3.640625 -0.421875 C 3.316406 -0.0976562 2.875 0.0625 2.3125 0.0625 C 1.75 0.0625 1.304688 -0.09375 0.984375 -0.40625 C 0.660156 -0.71875 0.5 -1.171875 0.5 -1.765625 L 0.5 -4.78125 L 1.234375 -4.78125 L 1.234375 -1.78125 C 1.234375 -1.375 1.332031 -1.078125 1.53125 -0.890625 C 1.726562 -0.703125 1.988281 -0.609375 2.3125 -0.609375 C 3.03125 -0.609375 3.390625 -1.007812 3.390625 -1.8125 Z M 3.390625 -1.8125 "/></g></g><g style="fill:#000000;fill-opacity:1;"><g transform="translate(141.366927, 49.885501)"><path style="stroke:none" d="M 0.515625 0 L 0.515625 -4.78125 L 1.390625 -4.78125 L 2.5625 -2.78125 C 2.78125 -2.40625 2.976562 -2.054688 3.15625 -1.734375 C 3.332031 -1.421875 3.453125 -1.203125 3.515625 -1.078125 L 3.625 -0.875 C 3.59375 -1.3125 3.578125 -1.945312 3.578125 -2.78125 L 3.578125 -4.78125 L 4.3125 -4.78125 L 4.3125 0 L 3.4375 0 L 2.25 -2 C 2.039062 -2.351562 1.847656 -2.6875 1.671875 -3 C 1.492188 -3.320312 1.367188 -3.554688 1.296875 -3.703125 L 1.1875 -3.90625 C 1.226562 -3.4375 1.25 -2.800781 1.25 -2 L 1.25 0 Z M 0.515625 0 "/></g></g><g style="fill:#000000;fill-opacity:1;"><g transform="translate(150.864753, 49.885501)"><path style="stroke:none" d="M 3.390625 -4.78125 L 3.390625 -4.171875 L 2.140625 -4.171875 L 2.140625 0 L 1.40625 0 L 1.40625 -4.171875 L 0.15625 -4.171875 L 0.15625 -4.78125 Z M 3.390625 -4.78125 "/></g></g><g style="fill:#000000;fill-opacity:1;"><g transform="translate(159.085792, 49.885501)"><path style="stroke:none" d="M 1.25 -0.609375 L 3.28125 -0.609375 L 3.28125 0 L 0.515625 0 L 0.515625 -4.78125 L 3.234375 -4.78125 L 3.234375 -4.171875 L 1.25 -4.171875 L 1.25 -2.703125 L 3.015625 -2.703125 L 3.015625 -2.078125 L 1.25 -2.078125 Z M 1.25 -0.609375 "/></g></g><g style="fill:#000000;fill-opacity:1;"><g transform="translate(167.406136, 49.885501)"><path style="stroke:none" d="M 1.25 -4.171875 L 1.25 -2.421875 L 1.90625 -2.421875 C 2.207031 -2.421875 2.4375 -2.5 2.59375 -2.65625 C 2.75 -2.820312 2.828125 -3.035156 2.828125 -3.296875 C 2.828125 -3.878906 2.507812 -4.171875 1.875 -4.171875 Z M 3 0 L 1.875 -1.8125 L 1.25 -1.8125 L 1.25 0 L 0.515625 0 L 0.515625 -4.78125 L 1.84375 -4.78125 C 2.394531 -4.78125 2.816406 -4.644531 3.109375 -4.375 C 3.410156 -4.113281 3.5625 -3.753906 3.5625 -3.296875 C 3.5625 -2.953125 3.476562 -2.660156 3.3125 -2.421875 C 3.144531 -2.191406 2.914062 -2.023438 2.625 -1.921875 L 3.875 0 Z M 3 0 "/></g></g></g></svg>