<svg xmlns="http://www.w3.org/2000/svg" xmlns:xlink="http://www.w3.org/1999/xlink" width="40" zoomAndPan="magnify" viewBox="0 0 30 30.000001" height="40" preserveAspectRatio="xMidYMid meet" version="1.2"><defs><clipPath id="adf6ad7df7"><path d="M 0.484375 0 L 29.515625 0 L 29.515625 29.03125 L 0.484375 29.03125 Z M 0.484375 0 "/></clipPath></defs><g id="385cab68fb"><g clip-rule="nonzero" clip-path="url(#adf6ad7df7)"><path style=" stroke:none;fill-rule:nonzero;fill:#ffffff;fill-opacity:1;" d="M 0.484375 0 L 29.515625 0 L 29.515625 29.03125 L 0.484375 29.03125 Z M 0.484375 0 "/><path style=" stroke:none;fill-rule:nonzero;fill:#000000;fill-opacity:1;" d="M 0.484375 0 L 29.515625 0 L 29.515625 29.03125 L 0.484375 29.03125 Z M 0.484375 0 "/></g><g style="fill:#fff9f9;fill-opacity:1;"><g transform="translate(3.452188, 18.636012)"><path style="stroke:none" d="M 7.15625 -8.546875 L 10.5625 0 L 7.15625 0 L 5.234375 -5.3125 L 4.3125 -2.84375 L 5.890625 -2.84375 L 6.921875 0 L -0.03125 0 L 3.3125 -8.546875 Z M 7.15625 -8.546875 "/></g></g><g style="fill:#171616;fill-opacity:1;"><g transform="translate(11.383943, 16.281523)"><path style="stroke:none" d="M -0.246094 0 L -0.246094 -6.589844 L 2.621094 -6.589844 L 2.621094 -3.097656 L 2.285156 -3.097656 L 1.988281 -3.253906 L 3.101562 -5.339844 L 6.183594 -5.339844 L 4.503906 -2.34375 L 4.210938 -2.507812 L 4.496094 -2.6875 L 6.386719 0.335938 L 3.28125 0.335938 L 1.996094 -1.808594 L 2.285156 -1.980469 L 2.621094 -1.980469 L 2.621094 0.335938 L -0.246094 0.335938 Z M 0.425781 0 L 0.0898438 0 L 0.0898438 -0.335938 L 2.285156 -0.335938 L 2.285156 0 L 1.949219 0 L 1.949219 -3.191406 L 3.757812 -0.171875 L 3.472656 0 L 3.472656 -0.335938 L 5.785156 -0.335938 L 5.785156 0 L 5.5 0.175781 L 3.824219 -2.5 L 5.320312 -5.171875 L 5.613281 -5.007812 L 5.613281 -4.671875 L 3.300781 -4.671875 L 3.300781 -5.007812 L 3.597656 -4.851562 L 2.582031 -2.941406 L 1.949219 -3.097656 L 1.949219 -6.257812 L 2.285156 -6.257812 L 2.285156 -5.921875 L 0.0898438 -5.921875 L 0.0898438 -6.257812 L 0.425781 -6.257812 Z M 0.425781 0 "/></g></g><g style="fill:#fff9f9;fill-opacity:1;"><g transform="translate(11.383943, 16.281523)"><path style="stroke:none" d="M 0.09375 0 L 0.09375 -6.25 L 2.28125 -6.25 L 2.28125 -3.09375 L 3.296875 -5 L 5.609375 -5 L 4.21875 -2.5 L 5.78125 0 L 3.46875 0 L 2.28125 -1.984375 L 2.28125 0 Z M 0.09375 0 "/></g></g><g style="fill:#171616;fill-opacity:1;"><g transform="translate(14.637293, 18.775707)"><path style="stroke:none" d="M 3.9375 1.574219 L 1.234375 1.574219 L 1.902344 -0.140625 L 2.214844 -0.0195312 L 2.214844 0.316406 L 1.929688 0.316406 L -0.460938 -5.339844 L 2.625 -5.339844 L 3.855469 -2 L 3.542969 -1.882812 L 3.542969 -2.21875 L 3.675781 -2.21875 L 3.675781 -1.882812 L 3.363281 -1.765625 L 3.007812 -2.726562 L 3.902344 -5.339844 L 6.996094 -5.339844 L 4.160156 1.574219 Z M 3.9375 0.90625 L 3.9375 1.242188 L 3.625 1.113281 L 6.1875 -5.132812 L 6.496094 -5.007812 L 6.496094 -4.671875 L 4.140625 -4.671875 L 4.140625 -5.007812 L 4.457031 -4.898438 L 3.679688 -2.621094 L 3.363281 -2.730469 L 3.679688 -2.847656 L 4.15625 -1.546875 L 3.308594 -1.546875 L 2.078125 -4.890625 L 2.390625 -5.007812 L 2.390625 -4.671875 L 0.0429688 -4.671875 L 0.0429688 -5.007812 L 0.351562 -5.136719 L 2.460938 -0.148438 L 2.152344 -0.0195312 L 2.152344 -0.351562 L 2.703125 -0.351562 L 2.035156 1.363281 L 1.722656 1.242188 L 1.722656 0.90625 Z M 3.9375 0.90625 "/></g></g><g style="fill:#fff9f9;fill-opacity:1;"><g transform="translate(14.637293, 18.775707)"><path style="stroke:none" d="M 3.9375 1.234375 L 1.71875 1.234375 L 2.21875 -0.015625 L 2.15625 -0.015625 L 0.046875 -5 L 2.390625 -5 L 3.546875 -1.875 L 3.671875 -1.875 L 3.359375 -2.734375 L 4.140625 -5 L 6.5 -5 Z M 3.9375 1.234375 "/></g></g><g style="fill:#fff9f9;fill-opacity:1;"><g transform="translate(19.420244, 18.775707)"><path style="stroke:none" d="M 3.9375 1.234375 L 1.71875 1.234375 L 2.21875 -0.015625 L 2.15625 -0.015625 L 0.046875 -5 L 2.390625 -5 L 3.546875 -1.875 L 3.671875 -1.875 L 3.359375 -2.734375 L 4.140625 -5 L 6.5 -5 Z M 3.9375 1.234375 "/></g></g><g style="fill:#fff9f9;fill-opacity:1;"><g transform="translate(20.444081, 13.189105)"><path style="stroke:none" d="M 0.234375 -0.25 L 0.078125 -0.078125 L -0.84375 -0.890625 L -0.5 -1.296875 C -0.445312 -1.347656 -0.390625 -1.390625 -0.328125 -1.421875 C -0.265625 -1.453125 -0.203125 -1.457031 -0.140625 -1.4375 C -0.0859375 -1.425781 -0.0234375 -1.390625 0.046875 -1.328125 C 0.0976562 -1.285156 0.132812 -1.234375 0.15625 -1.171875 C 0.175781 -1.109375 0.175781 -1.046875 0.15625 -0.984375 C 0.144531 -0.921875 0.113281 -0.863281 0.0625 -0.8125 L -0.125 -0.578125 Z M -0.53125 -0.921875 L -0.28125 -0.703125 L -0.109375 -0.90625 C -0.0664062 -0.957031 -0.046875 -1.003906 -0.046875 -1.046875 C -0.046875 -1.085938 -0.0664062 -1.125 -0.109375 -1.15625 C -0.148438 -1.195312 -0.191406 -1.210938 -0.234375 -1.203125 C -0.273438 -1.203125 -0.316406 -1.175781 -0.359375 -1.125 Z M -0.53125 -0.921875 "/></g></g><g style="fill:#fff9f9;fill-opacity:1;"><g transform="translate(21.307956, 12.258428)"><path style="stroke:none" d="M 0.484375 -0.859375 L 0.9375 -0.5 L 0.71875 -0.375 L 0.296875 -0.703125 L 0.0625 -0.578125 L 0.296875 -0.15625 L 0.09375 -0.046875 L -0.484375 -1.140625 L -0.015625 -1.390625 C 0.046875 -1.421875 0.109375 -1.4375 0.171875 -1.4375 C 0.242188 -1.445312 0.304688 -1.4375 0.359375 -1.40625 C 0.410156 -1.382812 0.457031 -1.332031 0.5 -1.25 C 0.539062 -1.175781 0.554688 -1.109375 0.546875 -1.046875 C 0.546875 -0.984375 0.523438 -0.921875 0.484375 -0.859375 Z M 0.0625 -1.171875 L -0.171875 -1.046875 L -0.03125 -0.765625 L 0.203125 -0.890625 C 0.265625 -0.921875 0.300781 -0.957031 0.3125 -1 C 0.332031 -1.039062 0.328125 -1.085938 0.296875 -1.140625 C 0.273438 -1.179688 0.242188 -1.203125 0.203125 -1.203125 C 0.171875 -1.210938 0.125 -1.203125 0.0625 -1.171875 Z M 0.0625 -1.171875 "/></g></g><g style="fill:#fff9f9;fill-opacity:1;"><g transform="translate(22.461231, 11.665438)"><path style="stroke:none" d="M 0.65625 -0.046875 C 0.550781 -0.0351562 0.460938 -0.0390625 0.390625 -0.0625 C 0.316406 -0.09375 0.25 -0.132812 0.1875 -0.1875 C 0.132812 -0.238281 0.09375 -0.300781 0.0625 -0.375 C 0.03125 -0.445312 0.0078125 -0.523438 0 -0.609375 C 0 -0.691406 0.00390625 -0.773438 0.015625 -0.859375 C 0.0351562 -0.941406 0.0664062 -1.015625 0.109375 -1.078125 C 0.148438 -1.148438 0.203125 -1.203125 0.265625 -1.234375 C 0.335938 -1.273438 0.425781 -1.300781 0.53125 -1.3125 C 0.632812 -1.320312 0.722656 -1.3125 0.796875 -1.28125 C 0.878906 -1.257812 0.945312 -1.21875 1 -1.15625 C 1.0625 -1.101562 1.109375 -1.039062 1.140625 -0.96875 C 1.171875 -0.894531 1.1875 -0.816406 1.1875 -0.734375 C 1.195312 -0.648438 1.191406 -0.566406 1.171875 -0.484375 C 1.160156 -0.398438 1.132812 -0.328125 1.09375 -0.265625 C 1.050781 -0.203125 0.992188 -0.148438 0.921875 -0.109375 C 0.847656 -0.078125 0.757812 -0.0546875 0.65625 -0.046875 Z M 0.640625 -0.25 C 0.710938 -0.257812 0.773438 -0.285156 0.828125 -0.328125 C 0.878906 -0.367188 0.914062 -0.421875 0.9375 -0.484375 C 0.957031 -0.546875 0.960938 -0.617188 0.953125 -0.703125 C 0.953125 -0.785156 0.929688 -0.859375 0.890625 -0.921875 C 0.859375 -0.992188 0.8125 -1.046875 0.75 -1.078125 C 0.695312 -1.109375 0.632812 -1.117188 0.5625 -1.109375 C 0.488281 -1.097656 0.425781 -1.070312 0.375 -1.03125 C 0.320312 -0.988281 0.285156 -0.929688 0.265625 -0.859375 C 0.242188 -0.796875 0.234375 -0.722656 0.234375 -0.640625 C 0.242188 -0.554688 0.265625 -0.484375 0.296875 -0.421875 C 0.335938 -0.359375 0.382812 -0.3125 0.4375 -0.28125 C 0.5 -0.25 0.566406 -0.238281 0.640625 -0.25 Z M 0.640625 -0.25 "/></g></g><g style="fill:#fff9f9;fill-opacity:1;"><g transform="translate(23.957659, 11.571584)"><path style="stroke:none" d="M 0.453125 0.140625 L 0.109375 0.03125 L 0.484375 -1.140625 L 0.828125 -1.03125 C 1.023438 -0.96875 1.15625 -0.867188 1.21875 -0.734375 C 1.289062 -0.597656 1.300781 -0.4375 1.25 -0.25 C 1.1875 -0.0625 1.085938 0.0625 0.953125 0.125 C 0.816406 0.195312 0.648438 0.203125 0.453125 0.140625 Z M 0.625 -0.859375 L 0.390625 -0.078125 L 0.515625 -0.046875 C 0.578125 -0.0234375 0.640625 -0.015625 0.703125 -0.015625 C 0.773438 -0.0234375 0.835938 -0.0546875 0.890625 -0.109375 C 0.941406 -0.160156 0.984375 -0.226562 1.015625 -0.3125 C 1.035156 -0.40625 1.039062 -0.484375 1.03125 -0.546875 C 1.03125 -0.617188 1 -0.675781 0.9375 -0.71875 C 0.882812 -0.769531 0.820312 -0.804688 0.75 -0.828125 Z M 0.625 -0.859375 "/></g></g><g style="fill:#fff9f9;fill-opacity:1;"><g transform="translate(25.245463, 12.009516)"><path style="stroke:none" d="M 0.4375 0.390625 C 0.351562 0.316406 0.296875 0.238281 0.265625 0.15625 C 0.234375 0.0820312 0.226562 0.0078125 0.25 -0.0625 C 0.269531 -0.132812 0.304688 -0.207031 0.359375 -0.28125 L 0.859375 -0.890625 L 1.03125 -0.75 L 0.53125 -0.140625 C 0.5 -0.109375 0.476562 -0.0664062 0.46875 -0.015625 C 0.457031 0.0234375 0.460938 0.0664062 0.484375 0.109375 C 0.503906 0.148438 0.535156 0.191406 0.578125 0.234375 C 0.628906 0.273438 0.675781 0.300781 0.71875 0.3125 C 0.757812 0.320312 0.800781 0.3125 0.84375 0.28125 C 0.882812 0.257812 0.921875 0.234375 0.953125 0.203125 L 1.453125 -0.40625 L 1.625 -0.265625 L 1.125 0.34375 C 1.070312 0.414062 1.007812 0.46875 0.9375 0.5 C 0.863281 0.53125 0.785156 0.535156 0.703125 0.515625 C 0.617188 0.503906 0.53125 0.460938 0.4375 0.390625 Z M 0.4375 0.390625 "/></g></g><g style="fill:#fff9f9;fill-opacity:1;"><g transform="translate(26.288149, 12.901432)"><path style="stroke:none" d="M 0.296875 0.578125 C 0.242188 0.484375 0.210938 0.398438 0.203125 0.328125 C 0.203125 0.253906 0.210938 0.179688 0.234375 0.109375 C 0.265625 0.0351562 0.304688 -0.0234375 0.359375 -0.078125 C 0.421875 -0.140625 0.488281 -0.191406 0.5625 -0.234375 C 0.632812 -0.265625 0.710938 -0.285156 0.796875 -0.296875 C 0.878906 -0.316406 0.957031 -0.320312 1.03125 -0.3125 C 1.113281 -0.300781 1.179688 -0.269531 1.234375 -0.21875 C 1.296875 -0.175781 1.351562 -0.109375 1.40625 -0.015625 C 1.457031 0.078125 1.484375 0.160156 1.484375 0.234375 C 1.484375 0.316406 1.46875 0.390625 1.4375 0.453125 C 1.414062 0.523438 1.375 0.582031 1.3125 0.625 L 1.1875 0.40625 C 1.238281 0.363281 1.265625 0.3125 1.265625 0.25 C 1.273438 0.195312 1.265625 0.140625 1.234375 0.078125 C 1.203125 0.015625 1.15625 -0.03125 1.09375 -0.0625 C 1.039062 -0.09375 0.972656 -0.101562 0.890625 -0.09375 C 0.816406 -0.0820312 0.742188 -0.0625 0.671875 -0.03125 C 0.597656 0.0078125 0.539062 0.0546875 0.5 0.109375 C 0.46875 0.171875 0.445312 0.234375 0.4375 0.296875 C 0.4375 0.359375 0.453125 0.421875 0.484375 0.484375 C 0.515625 0.546875 0.554688 0.585938 0.609375 0.609375 C 0.671875 0.640625 0.734375 0.644531 0.796875 0.625 L 0.921875 0.84375 C 0.828125 0.875 0.738281 0.882812 0.65625 0.875 C 0.582031 0.875 0.515625 0.847656 0.453125 0.796875 C 0.398438 0.742188 0.347656 0.671875 0.296875 0.578125 Z M 0.296875 0.578125 "/></g></g><g style="fill:#fff9f9;fill-opacity:1;"><g transform="translate(26.916996, 14.180997)"><path style="stroke:none" d="M 0.078125 0.625 L 0.046875 0.390625 L 1.046875 0.265625 L 1 -0.109375 L 1.21875 -0.140625 L 1.34375 0.828125 L 1.125 0.859375 L 1.078125 0.5 Z M 0.078125 0.625 "/></g></g></g></svg>