<svg xmlns="http://www.w3.org/2000/svg" xmlns:xlink="http://www.w3.org/1999/xlink" width="200" zoomAndPan="magnify" viewBox="0 0 150 44.999999" height="60" preserveAspectRatio="xMidYMid meet" version="1.2"><defs/><g id="c72d731bb5"><g style="fill:#ffffff;fill-opacity:1;"><g transform="translate(26.882812, 31.358433)"><path style="stroke:none" d="M 7.421875 0 L 0 0 L 0 -0.34375 C 0.382812 -0.4375 0.796875 -0.578125 1.234375 -0.765625 C 1.679688 -0.960938 2.148438 -1.316406 2.640625 -1.828125 C 3.128906 -2.335938 3.597656 -3.117188 4.046875 -4.171875 C 4.273438 -4.679688 4.5 -5.222656 4.71875 -5.796875 C 4.9375 -6.367188 5.179688 -7.03125 5.453125 -7.78125 C 5.734375 -8.53125 6.0625 -9.429688 6.4375 -10.484375 C 6.820312 -11.546875 7.289062 -12.804688 7.84375 -14.265625 C 8.34375 -15.597656 8.859375 -16.945312 9.390625 -18.3125 C 9.921875 -19.6875 10.429688 -21.003906 10.921875 -22.265625 C 11.421875 -23.523438 11.863281 -24.648438 12.25 -25.640625 C 12 -25.984375 11.703125 -26.207031 11.359375 -26.3125 C 11.015625 -26.414062 10.507812 -26.46875 9.84375 -26.46875 L 8.796875 -26.46875 L 8.796875 -26.859375 L 9.25 -26.859375 C 9.570312 -26.859375 9.914062 -26.976562 10.28125 -27.21875 C 10.65625 -27.457031 11.03125 -27.738281 11.40625 -28.0625 C 11.78125 -28.382812 12.125 -28.664062 12.4375 -28.90625 C 12.75 -29.144531 13 -29.265625 13.1875 -29.265625 C 13.394531 -29.265625 13.554688 -29.195312 13.671875 -29.0625 C 13.785156 -28.925781 13.878906 -28.753906 13.953125 -28.546875 C 14.148438 -28.109375 14.441406 -27.394531 14.828125 -26.40625 C 15.222656 -25.414062 15.679688 -24.253906 16.203125 -22.921875 C 16.722656 -21.585938 17.269531 -20.171875 17.84375 -18.671875 C 18.414062 -17.179688 18.96875 -15.710938 19.5 -14.265625 C 20.050781 -12.804688 20.515625 -11.546875 20.890625 -10.484375 C 21.273438 -9.429688 21.601562 -8.53125 21.875 -7.78125 C 22.15625 -7.03125 22.40625 -6.367188 22.625 -5.796875 C 22.84375 -5.222656 23.066406 -4.679688 23.296875 -4.171875 C 23.773438 -3.117188 24.25 -2.335938 24.71875 -1.828125 C 25.195312 -1.316406 25.660156 -0.960938 26.109375 -0.765625 C 26.554688 -0.578125 26.96875 -0.4375 27.34375 -0.34375 L 27.34375 0 L 18.265625 0 L 18.265625 -0.34375 C 18.609375 -0.34375 18.960938 -0.410156 19.328125 -0.546875 C 19.691406 -0.679688 20 -0.914062 20.25 -1.25 C 20.507812 -1.59375 20.640625 -2.0625 20.640625 -2.65625 C 20.640625 -3.050781 20.488281 -3.75 20.1875 -4.75 C 19.894531 -5.75 19.519531 -6.914062 19.0625 -8.25 L 6.53125 -8.25 C 6.09375 -6.914062 5.734375 -5.757812 5.453125 -4.78125 C 5.179688 -3.800781 5.046875 -3.117188 5.046875 -2.734375 C 5.046875 -2.035156 5.175781 -1.515625 5.4375 -1.171875 C 5.695312 -0.828125 6.007812 -0.601562 6.375 -0.5 C 6.75 -0.394531 7.097656 -0.34375 7.421875 -0.34375 Z M 12.59375 -25 C 12.226562 -24.050781 11.796875 -22.925781 11.296875 -21.625 C 10.804688 -20.320312 10.289062 -18.929688 9.75 -17.453125 C 9.207031 -15.984375 8.671875 -14.503906 8.140625 -13.015625 C 7.617188 -11.535156 7.140625 -10.140625 6.703125 -8.828125 L 18.84375 -8.828125 C 18.4375 -9.960938 17.988281 -11.164062 17.5 -12.4375 C 17.019531 -13.71875 16.535156 -14.988281 16.046875 -16.25 C 15.566406 -17.519531 15.097656 -18.71875 14.640625 -19.84375 C 14.179688 -20.976562 13.773438 -21.992188 13.421875 -22.890625 C 13.078125 -23.785156 12.800781 -24.488281 12.59375 -25 Z M 12.59375 -25 "/></g></g><g style="fill:#ffffff;fill-opacity:1;"><g transform="translate(54.219462, 31.358433)"><path style="stroke:none" d="M 1.140625 -28.203125 L 1.140625 -28.546875 L 8.328125 -28.546875 L 8.328125 -28.203125 C 7.796875 -28.203125 7.378906 -28.066406 7.078125 -27.796875 C 6.773438 -27.535156 6.5625 -27.203125 6.4375 -26.796875 C 6.3125 -26.398438 6.234375 -25.976562 6.203125 -25.53125 C 6.179688 -25.082031 6.171875 -24.6875 6.171875 -24.34375 L 6.015625 -15.5625 L 12.5 -21.671875 C 12.5625 -21.722656 12.742188 -21.890625 13.046875 -22.171875 C 13.347656 -22.460938 13.707031 -22.820312 14.125 -23.25 C 14.550781 -23.675781 14.960938 -24.132812 15.359375 -24.625 C 15.753906 -25.125 16.085938 -25.613281 16.359375 -26.09375 C 16.640625 -26.582031 16.78125 -27.03125 16.78125 -27.4375 C 16.78125 -27.757812 16.679688 -27.96875 16.484375 -28.0625 C 16.285156 -28.15625 15.910156 -28.203125 15.359375 -28.203125 L 15.359375 -28.546875 L 23.671875 -28.546875 L 23.671875 -28.203125 C 23.015625 -28.203125 22.242188 -27.988281 21.359375 -27.5625 C 20.484375 -27.132812 19.539062 -26.554688 18.53125 -25.828125 C 17.519531 -25.109375 16.476562 -24.300781 15.40625 -23.40625 C 14.34375 -22.507812 13.289062 -21.585938 12.25 -20.640625 C 11.21875 -19.703125 10.242188 -18.796875 9.328125 -17.921875 C 9.960938 -17.867188 10.523438 -17.613281 11.015625 -17.15625 C 11.515625 -16.695312 12.144531 -15.9375 12.90625 -14.875 C 13.832031 -13.5625 14.65625 -12.367188 15.375 -11.296875 C 16.101562 -10.234375 16.832031 -9.179688 17.5625 -8.140625 C 18.300781 -7.109375 19.132812 -5.972656 20.0625 -4.734375 C 20.601562 -4.054688 21.160156 -3.378906 21.734375 -2.703125 C 22.316406 -2.023438 22.894531 -1.460938 23.46875 -1.015625 C 24.039062 -0.566406 24.570312 -0.34375 25.0625 -0.34375 L 25.0625 0 L 17.296875 0 L 17.296875 -0.34375 C 17.804688 -0.34375 18.109375 -0.503906 18.203125 -0.828125 C 18.304688 -1.148438 18.273438 -1.546875 18.109375 -2.015625 C 17.953125 -2.492188 17.75 -2.957031 17.5 -3.40625 C 17.25 -3.851562 17.039062 -4.203125 16.875 -4.453125 C 16.050781 -5.671875 15.273438 -6.796875 14.546875 -7.828125 C 13.816406 -8.867188 13.066406 -9.925781 12.296875 -11 C 11.523438 -12.082031 10.660156 -13.28125 9.703125 -14.59375 C 9.472656 -14.914062 9.234375 -15.222656 8.984375 -15.515625 C 8.742188 -15.804688 8.40625 -15.953125 7.96875 -15.953125 C 7.625 -15.953125 7.296875 -15.84375 6.984375 -15.625 C 6.671875 -15.40625 6.398438 -15.179688 6.171875 -14.953125 L 6.171875 -4.203125 C 6.171875 -3.859375 6.179688 -3.460938 6.203125 -3.015625 C 6.234375 -2.566406 6.3125 -2.140625 6.4375 -1.734375 C 6.5625 -1.335938 6.773438 -1.003906 7.078125 -0.734375 C 7.378906 -0.472656 7.796875 -0.34375 8.328125 -0.34375 L 8.328125 0 L 1.140625 0 L 1.140625 -0.34375 C 1.691406 -0.34375 2.113281 -0.472656 2.40625 -0.734375 C 2.707031 -1.003906 2.914062 -1.335938 3.03125 -1.734375 C 3.15625 -2.140625 3.234375 -2.566406 3.265625 -3.015625 C 3.296875 -3.460938 3.3125 -3.859375 3.3125 -4.203125 L 3.3125 -24.34375 C 3.3125 -24.6875 3.296875 -25.082031 3.265625 -25.53125 C 3.234375 -25.976562 3.15625 -26.398438 3.03125 -26.796875 C 2.914062 -27.203125 2.707031 -27.535156 2.40625 -27.796875 C 2.113281 -28.066406 1.691406 -28.203125 1.140625 -28.203125 Z M 1.140625 -28.203125 "/></g></g><g style="fill:#ffffff;fill-opacity:1;"><g transform="translate(70.714588, 31.641617)"><path style="stroke:none" d="M 0 -28.546875 L 9.328125 -28.546875 L 9.328125 -28.203125 C 8.890625 -28.203125 8.519531 -28.101562 8.21875 -27.90625 C 7.914062 -27.707031 7.765625 -27.40625 7.765625 -27 C 7.765625 -26.644531 7.898438 -26.128906 8.171875 -25.453125 C 8.453125 -24.773438 8.820312 -24 9.28125 -23.125 C 9.75 -22.25 10.269531 -21.335938 10.84375 -20.390625 C 11.414062 -19.453125 11.992188 -18.523438 12.578125 -17.609375 C 13.160156 -16.703125 13.707031 -15.863281 14.21875 -15.09375 C 14.726562 -14.320312 15.15625 -13.675781 15.5 -13.15625 C 15.84375 -13.675781 16.265625 -14.320312 16.765625 -15.09375 C 17.273438 -15.875 17.8125 -16.726562 18.375 -17.65625 C 18.9375 -18.582031 19.492188 -19.519531 20.046875 -20.46875 C 20.597656 -21.414062 21.09375 -22.320312 21.53125 -23.1875 C 21.976562 -24.0625 22.335938 -24.828125 22.609375 -25.484375 C 22.878906 -26.148438 23.015625 -26.65625 23.015625 -27 C 23.015625 -27.40625 22.828125 -27.707031 22.453125 -27.90625 C 22.078125 -28.101562 21.671875 -28.203125 21.234375 -28.203125 L 21.234375 -28.546875 L 28.265625 -28.546875 L 28.265625 -28.203125 C 27.441406 -28.203125 26.734375 -28.039062 26.140625 -27.71875 C 25.554688 -27.394531 25.015625 -26.898438 24.515625 -26.234375 C 24.367188 -26.046875 24.082031 -25.609375 23.65625 -24.921875 C 23.226562 -24.234375 22.707031 -23.410156 22.09375 -22.453125 C 21.488281 -21.492188 20.851562 -20.476562 20.1875 -19.40625 C 19.519531 -18.34375 18.875 -17.3125 18.25 -16.3125 C 17.632812 -15.3125 17.09375 -14.4375 16.625 -13.6875 C 16.15625 -12.9375 15.828125 -12.398438 15.640625 -12.078125 L 15.640625 -4.203125 C 15.640625 -3.859375 15.65625 -3.460938 15.6875 -3.015625 C 15.71875 -2.566406 15.789062 -2.140625 15.90625 -1.734375 C 16.03125 -1.335938 16.242188 -1.003906 16.546875 -0.734375 C 16.859375 -0.472656 17.28125 -0.34375 17.8125 -0.34375 L 17.8125 0 L 10.625 0 L 10.625 -0.34375 C 11.175781 -0.34375 11.597656 -0.472656 11.890625 -0.734375 C 12.179688 -1.003906 12.390625 -1.335938 12.515625 -1.734375 C 12.640625 -2.140625 12.710938 -2.566406 12.734375 -3.015625 C 12.765625 -3.460938 12.78125 -3.859375 12.78125 -4.203125 L 12.78125 -11.796875 C 12.78125 -11.796875 12.632812 -12.03125 12.34375 -12.5 C 12.050781 -12.976562 11.65625 -13.613281 11.15625 -14.40625 C 10.664062 -15.207031 10.125 -16.085938 9.53125 -17.046875 C 8.945312 -18.015625 8.335938 -19 7.703125 -20 C 7.078125 -21 6.492188 -21.9375 5.953125 -22.8125 C 5.410156 -23.6875 4.9375 -24.425781 4.53125 -25.03125 C 4.132812 -25.644531 3.867188 -26.046875 3.734375 -26.234375 C 3.265625 -26.898438 2.734375 -27.394531 2.140625 -27.71875 C 1.546875 -28.039062 0.832031 -28.203125 0 -28.203125 Z M 0 -28.546875 "/></g></g><g style="fill:#ffffff;fill-opacity:1;"><g transform="translate(98.973387, 31.641617)"><path style="stroke:none" d="M 0 -28.546875 L 9.328125 -28.546875 L 9.328125 -28.203125 C 8.890625 -28.203125 8.519531 -28.101562 8.21875 -27.90625 C 7.914062 -27.707031 7.765625 -27.40625 7.765625 -27 C 7.765625 -26.644531 7.898438 -26.128906 8.171875 -25.453125 C 8.453125 -24.773438 8.820312 -24 9.28125 -23.125 C 9.75 -22.25 10.269531 -21.335938 10.84375 -20.390625 C 11.414062 -19.453125 11.992188 -18.523438 12.578125 -17.609375 C 13.160156 -16.703125 13.707031 -15.863281 14.21875 -15.09375 C 14.726562 -14.320312 15.15625 -13.675781 15.5 -13.15625 C 15.84375 -13.675781 16.265625 -14.320312 16.765625 -15.09375 C 17.273438 -15.875 17.8125 -16.726562 18.375 -17.65625 C 18.9375 -18.582031 19.492188 -19.519531 20.046875 -20.46875 C 20.597656 -21.414062 21.09375 -22.320312 21.53125 -23.1875 C 21.976562 -24.0625 22.335938 -24.828125 22.609375 -25.484375 C 22.878906 -26.148438 23.015625 -26.65625 23.015625 -27 C 23.015625 -27.40625 22.828125 -27.707031 22.453125 -27.90625 C 22.078125 -28.101562 21.671875 -28.203125 21.234375 -28.203125 L 21.234375 -28.546875 L 28.265625 -28.546875 L 28.265625 -28.203125 C 27.441406 -28.203125 26.734375 -28.039062 26.140625 -27.71875 C 25.554688 -27.394531 25.015625 -26.898438 24.515625 -26.234375 C 24.367188 -26.046875 24.082031 -25.609375 23.65625 -24.921875 C 23.226562 -24.234375 22.707031 -23.410156 22.09375 -22.453125 C 21.488281 -21.492188 20.851562 -20.476562 20.1875 -19.40625 C 19.519531 -18.34375 18.875 -17.3125 18.25 -16.3125 C 17.632812 -15.3125 17.09375 -14.4375 16.625 -13.6875 C 16.15625 -12.9375 15.828125 -12.398438 15.640625 -12.078125 L 15.640625 -4.203125 C 15.640625 -3.859375 15.65625 -3.460938 15.6875 -3.015625 C 15.71875 -2.566406 15.789062 -2.140625 15.90625 -1.734375 C 16.03125 -1.335938 16.242188 -1.003906 16.546875 -0.734375 C 16.859375 -0.472656 17.28125 -0.34375 17.8125 -0.34375 L 17.8125 0 L 10.625 0 L 10.625 -0.34375 C 11.175781 -0.34375 11.597656 -0.472656 11.890625 -0.734375 C 12.179688 -1.003906 12.390625 -1.335938 12.515625 -1.734375 C 12.640625 -2.140625 12.710938 -2.566406 12.734375 -3.015625 C 12.765625 -3.460938 12.78125 -3.859375 12.78125 -4.203125 L 12.78125 -11.796875 C 12.78125 -11.796875 12.632812 -12.03125 12.34375 -12.5 C 12.050781 -12.976562 11.65625 -13.613281 11.15625 -14.40625 C 10.664062 -15.207031 10.125 -16.085938 9.53125 -17.046875 C 8.945312 -18.015625 8.335938 -19 7.703125 -20 C 7.078125 -21 6.492188 -21.9375 5.953125 -22.8125 C 5.410156 -23.6875 4.9375 -24.425781 4.53125 -25.03125 C 4.132812 -25.644531 3.867188 -26.046875 3.734375 -26.234375 C 3.265625 -26.898438 2.734375 -27.394531 2.140625 -27.71875 C 1.546875 -28.039062 0.832031 -28.203125 0 -28.203125 Z M 0 -28.546875 "/></g></g><g style="fill:#ffffff;fill-opacity:1;"><g transform="translate(31.179657, 40.563568)"><path style="stroke:none" d="M 0.890625 -1.65625 L 1.34375 -1.65625 C 1.59375 -1.65625 1.78125 -1.710938 1.90625 -1.828125 C 2.039062 -1.953125 2.109375 -2.113281 2.109375 -2.3125 C 2.109375 -2.53125 2.039062 -2.695312 1.90625 -2.8125 C 1.78125 -2.9375 1.585938 -3 1.328125 -3 L 0.890625 -3 Z M 0.375 -3.4375 L 1.359375 -3.4375 C 1.753906 -3.4375 2.066406 -3.332031 2.296875 -3.125 C 2.523438 -2.914062 2.640625 -2.644531 2.640625 -2.3125 C 2.640625 -1.988281 2.519531 -1.722656 2.28125 -1.515625 C 2.050781 -1.316406 1.753906 -1.21875 1.390625 -1.21875 L 0.890625 -1.21875 L 0.890625 0 L 0.375 0 Z M 0.375 -3.4375 "/></g></g><g style="fill:#ffffff;fill-opacity:1;"><g transform="translate(37.339194, 40.563568)"><path style="stroke:none" d="M 0.890625 -3 L 0.890625 -1.734375 L 1.375 -1.734375 C 1.59375 -1.734375 1.753906 -1.789062 1.859375 -1.90625 C 1.972656 -2.019531 2.03125 -2.175781 2.03125 -2.375 C 2.03125 -2.789062 1.800781 -3 1.34375 -3 Z M 2.15625 0 L 1.34375 -1.296875 L 0.890625 -1.296875 L 0.890625 0 L 0.375 0 L 0.375 -3.4375 L 1.328125 -3.4375 C 1.722656 -3.4375 2.023438 -3.335938 2.234375 -3.140625 C 2.453125 -2.953125 2.5625 -2.691406 2.5625 -2.359375 C 2.5625 -2.117188 2.5 -1.914062 2.375 -1.75 C 2.257812 -1.582031 2.097656 -1.460938 1.890625 -1.390625 L 2.78125 0 Z M 2.15625 0 "/></g></g><g style="fill:#ffffff;fill-opacity:1;"><g transform="translate(43.590383, 40.563568)"><path style="stroke:none" d="M 0.234375 -1.734375 C 0.234375 -2.265625 0.375 -2.691406 0.65625 -3.015625 C 0.945312 -3.335938 1.332031 -3.5 1.8125 -3.5 C 2.300781 -3.5 2.6875 -3.335938 2.96875 -3.015625 C 3.25 -2.691406 3.390625 -2.257812 3.390625 -1.71875 C 3.390625 -1.1875 3.242188 -0.757812 2.953125 -0.4375 C 2.671875 -0.113281 2.289062 0.046875 1.8125 0.046875 C 1.332031 0.046875 0.945312 -0.113281 0.65625 -0.4375 C 0.375 -0.757812 0.234375 -1.191406 0.234375 -1.734375 Z M 1.046875 -2.671875 C 0.867188 -2.441406 0.78125 -2.128906 0.78125 -1.734375 C 0.78125 -1.335938 0.875 -1.023438 1.0625 -0.796875 C 1.25 -0.566406 1.5 -0.453125 1.8125 -0.453125 C 2.132812 -0.453125 2.382812 -0.5625 2.5625 -0.78125 C 2.75 -1.007812 2.84375 -1.328125 2.84375 -1.734375 C 2.84375 -2.128906 2.75 -2.441406 2.5625 -2.671875 C 2.382812 -2.898438 2.132812 -3.015625 1.8125 -3.015625 C 1.488281 -3.015625 1.234375 -2.898438 1.046875 -2.671875 Z M 1.046875 -2.671875 "/></g></g><g style="fill:#ffffff;fill-opacity:1;"><g transform="translate(50.569735, 40.563568)"><path style="stroke:none" d="M 0.90625 -0.4375 L 1.453125 -0.4375 C 1.835938 -0.4375 2.128906 -0.554688 2.328125 -0.796875 C 2.535156 -1.046875 2.640625 -1.363281 2.640625 -1.75 C 2.640625 -2.101562 2.53125 -2.394531 2.3125 -2.625 C 2.09375 -2.863281 1.800781 -2.984375 1.4375 -2.984375 L 0.90625 -2.984375 Z M 0.375 -3.4375 L 1.4375 -3.4375 C 1.945312 -3.4375 2.363281 -3.273438 2.6875 -2.953125 C 3.019531 -2.640625 3.1875 -2.238281 3.1875 -1.75 C 3.1875 -1.238281 3.03125 -0.816406 2.71875 -0.484375 C 2.414062 -0.160156 1.992188 0 1.453125 0 L 0.375 0 Z M 0.375 -3.4375 "/></g></g><g style="fill:#ffffff;fill-opacity:1;"><g transform="translate(57.325036, 40.563568)"><path style="stroke:none" d="M 2.4375 -1.296875 L 2.4375 -3.4375 L 2.953125 -3.4375 L 2.953125 -1.3125 C 2.953125 -0.863281 2.835938 -0.523438 2.609375 -0.296875 C 2.378906 -0.0664062 2.0625 0.046875 1.65625 0.046875 C 1.25 0.046875 0.929688 -0.0625 0.703125 -0.28125 C 0.472656 -0.507812 0.359375 -0.84375 0.359375 -1.28125 L 0.359375 -3.4375 L 0.890625 -3.4375 L 0.890625 -1.28125 C 0.890625 -0.988281 0.957031 -0.773438 1.09375 -0.640625 C 1.238281 -0.503906 1.425781 -0.4375 1.65625 -0.4375 C 2.175781 -0.4375 2.4375 -0.722656 2.4375 -1.296875 Z M 2.4375 -1.296875 "/></g></g><g style="fill:#ffffff;fill-opacity:1;"><g transform="translate(64.003957, 40.563568)"><path style="stroke:none" d="M 2.859375 -3.296875 L 2.859375 -2.78125 C 2.703125 -2.851562 2.5625 -2.90625 2.4375 -2.9375 C 2.320312 -2.976562 2.171875 -3 1.984375 -3 C 1.640625 -3 1.351562 -2.878906 1.125 -2.640625 C 0.894531 -2.410156 0.78125 -2.101562 0.78125 -1.71875 C 0.78125 -1.332031 0.894531 -1.019531 1.125 -0.78125 C 1.351562 -0.550781 1.65625 -0.4375 2.03125 -0.4375 C 2.351562 -0.4375 2.628906 -0.523438 2.859375 -0.703125 L 2.859375 -0.171875 C 2.648438 -0.0234375 2.359375 0.046875 1.984375 0.046875 C 1.472656 0.046875 1.050781 -0.113281 0.71875 -0.4375 C 0.394531 -0.757812 0.234375 -1.1875 0.234375 -1.71875 C 0.234375 -2.238281 0.394531 -2.660156 0.71875 -2.984375 C 1.050781 -3.316406 1.46875 -3.484375 1.96875 -3.484375 C 2.332031 -3.484375 2.628906 -3.421875 2.859375 -3.296875 Z M 2.859375 -3.296875 "/></g></g><g style="fill:#ffffff;fill-opacity:1;"><g transform="translate(70.443554, 40.563568)"><path style="stroke:none" d="M 2.4375 -3.4375 L 2.4375 -3 L 1.53125 -3 L 1.53125 0 L 1.015625 0 L 1.015625 -3 L 0.109375 -3 L 0.109375 -3.4375 Z M 2.4375 -3.4375 "/></g></g><g style="fill:#ffffff;fill-opacity:1;"><g transform="translate(76.34849, 40.563568)"><path style="stroke:none" d=""/></g></g><g style="fill:#ffffff;fill-opacity:1;"><g transform="translate(80.960046, 40.563568)"><path style="stroke:none" d="M 2.4375 -3.4375 L 2.96875 -3.4375 L 2.96875 0 L 2.4375 0 L 2.4375 -1.5 L 0.890625 -1.5 L 0.890625 0 L 0.375 0 L 0.375 -3.4375 L 0.890625 -3.4375 L 0.890625 -1.953125 L 2.4375 -1.953125 Z M 2.4375 -3.4375 "/></g></g><g style="fill:#ffffff;fill-opacity:1;"><g transform="translate(87.659336, 40.563568)"><path style="stroke:none" d="M 2.4375 -1.296875 L 2.4375 -3.4375 L 2.953125 -3.4375 L 2.953125 -1.3125 C 2.953125 -0.863281 2.835938 -0.523438 2.609375 -0.296875 C 2.378906 -0.0664062 2.0625 0.046875 1.65625 0.046875 C 1.25 0.046875 0.929688 -0.0625 0.703125 -0.28125 C 0.472656 -0.507812 0.359375 -0.84375 0.359375 -1.28125 L 0.359375 -3.4375 L 0.890625 -3.4375 L 0.890625 -1.28125 C 0.890625 -0.988281 0.957031 -0.773438 1.09375 -0.640625 C 1.238281 -0.503906 1.425781 -0.4375 1.65625 -0.4375 C 2.175781 -0.4375 2.4375 -0.722656 2.4375 -1.296875 Z M 2.4375 -1.296875 "/></g></g><g style="fill:#ffffff;fill-opacity:1;"><g transform="translate(94.338256, 40.563568)"><path style="stroke:none" d="M 0.375 0 L 0.375 -3.4375 L 1 -3.4375 L 1.84375 -2 C 2 -1.726562 2.140625 -1.476562 2.265625 -1.25 C 2.390625 -1.019531 2.476562 -0.863281 2.53125 -0.78125 L 2.59375 -0.625 C 2.570312 -0.9375 2.5625 -1.390625 2.5625 -1.984375 L 2.5625 -3.4375 L 3.09375 -3.4375 L 3.09375 0 L 2.46875 0 L 1.625 -1.4375 C 1.46875 -1.6875 1.328125 -1.925781 1.203125 -2.15625 C 1.078125 -2.382812 0.988281 -2.550781 0.9375 -2.65625 L 0.859375 -2.8125 C 0.878906 -2.46875 0.890625 -2.007812 0.890625 -1.4375 L 0.890625 0 Z M 0.375 0 "/></g></g><g style="fill:#ffffff;fill-opacity:1;"><g transform="translate(101.159756, 40.563568)"><path style="stroke:none" d="M 2.4375 -3.4375 L 2.4375 -3 L 1.53125 -3 L 1.53125 0 L 1.015625 0 L 1.015625 -3 L 0.109375 -3 L 0.109375 -3.4375 Z M 2.4375 -3.4375 "/></g></g><g style="fill:#ffffff;fill-opacity:1;"><g transform="translate(107.064691, 40.563568)"><path style="stroke:none" d="M 0.890625 -0.4375 L 2.359375 -0.4375 L 2.359375 0 L 0.375 0 L 0.375 -3.4375 L 2.328125 -3.4375 L 2.328125 -3 L 0.890625 -3 L 0.890625 -1.9375 L 2.171875 -1.9375 L 2.171875 -1.5 L 0.890625 -1.5 Z M 0.890625 -0.4375 "/></g></g><g style="fill:#ffffff;fill-opacity:1;"><g transform="translate(113.040911, 40.563568)"><path style="stroke:none" d="M 0.890625 -3 L 0.890625 -1.734375 L 1.375 -1.734375 C 1.59375 -1.734375 1.753906 -1.789062 1.859375 -1.90625 C 1.972656 -2.019531 2.03125 -2.175781 2.03125 -2.375 C 2.03125 -2.789062 1.800781 -3 1.34375 -3 Z M 2.15625 0 L 1.34375 -1.296875 L 0.890625 -1.296875 L 0.890625 0 L 0.375 0 L 0.375 -3.4375 L 1.328125 -3.4375 C 1.722656 -3.4375 2.023438 -3.335938 2.234375 -3.140625 C 2.453125 -2.953125 2.5625 -2.691406 2.5625 -2.359375 C 2.5625 -2.117188 2.5 -1.914062 2.375 -1.75 C 2.257812 -1.582031 2.097656 -1.460938 1.890625 -1.390625 L 2.78125 0 Z M 2.15625 0 "/></g></g></g></svg>